HIERARCHY
ROOT SpineBase
{
  OFFSET 0.000000 0.000000 0.000000
  CHANNELS 6 Xposition Yposition Zposition Zrotation Xrotation Yrotation
  JOINT SpineMid
  {
    OFFSET 0.000000 26.943932 0.000000
    CHANNELS 3 Zrotation Xrotation Yrotation
    JOINT SpineShoulder
    {
      OFFSET 0.027804 19.987587 -0.553544
      CHANNELS 3 Zrotation Xrotation Yrotation
      JOINT Neck
      {
        OFFSET 0.033412 6.617491 -0.473272
        CHANNELS 3 Zrotation Xrotation Yrotation
        JOINT Head
        {
          OFFSET 1.717383 12.284087 -0.288227
          CHANNELS 3 Zrotation Xrotation Yrotation
          End Site
          {
            OFFSET 0 0 0
          }
        }
      }
      JOINT ShoulderLeft
      {
        OFFSET -11.152940 -3.157237 -9.013467
        CHANNELS 3 Zrotation Xrotation Yrotation
        JOINT ElbowLeft
        {
          OFFSET -1.854619 -20.607151 -3.715949
          CHANNELS 3 Zrotation Xrotation Yrotation
          JOINT WristLeft
          {
            OFFSET 8.958479 -17.288009 -2.249583
            CHANNELS 3 Zrotation Xrotation Yrotation
            JOINT HandLeft
            {
              OFFSET 3.756630 -6.107835 2.233805
              CHANNELS 3 Zrotation Xrotation Yrotation
              JOINT HandTipLeft
              {
                OFFSET 6.213955 -4.235755 -1.086063
                CHANNELS 3 Zrotation Xrotation Yrotation
                End Site
                {
                  OFFSET 0 0 0
                }
              }
              JOINT ThumbLeft
              {
                OFFSET -4.581056 -3.225313 0.146944
                CHANNELS 3 Zrotation Xrotation Yrotation
                End Site
                {
                  OFFSET 0 0 0
                }
              }
            }
          }
        }
      }
      JOINT ShoulderRight
      {
        OFFSET 12.158732 -4.551253 4.255198
        CHANNELS 3 Zrotation Xrotation Yrotation
        JOINT ElbowRight
        {
          OFFSET 1.179326 -20.528786 2.609770
          CHANNELS 3 Zrotation Xrotation Yrotation
          JOINT WristRight
          {
            OFFSET -1.486295 -17.328989 -12.833963
            CHANNELS 3 Zrotation Xrotation Yrotation
            JOINT HandRight
            {
              OFFSET -1.265327 -3.658499 -1.383598
              CHANNELS 3 Zrotation Xrotation Yrotation
              JOINT HandTipRight
              {
                OFFSET -2.826344 -4.684235 -5.743712
                CHANNELS 3 Zrotation Xrotation Yrotation
                End Site
                {
                  OFFSET 0 0 0
                }
              }
              JOINT ThumbRight
              {
                OFFSET -3.116795 -3.095995 -4.765648
                CHANNELS 3 Zrotation Xrotation Yrotation
                End Site
                {
                  OFFSET 0 0 0
                }
              }
            }
          }
        }
      }
    }
  }
  JOINT HipLeft
  {
    OFFSET -5.106535 1.100306 -5.972283
    CHANNELS 3 Zrotation Xrotation Yrotation
    JOINT KneeLeft
    {
      OFFSET -5.393161 -30.790948 4.333265
      CHANNELS 3 Zrotation Xrotation Yrotation
      JOINT AnkleLeft
      {
        OFFSET -3.576434 -30.407994 9.707691
        CHANNELS 3 Zrotation Xrotation Yrotation
        JOINT FootLeft
        {
          OFFSET 5.303655 -5.814729 0.733275
          CHANNELS 3 Zrotation Xrotation Yrotation
          End Site
          {
            OFFSET 0 0 0
          }
        }
      }
    }
  }
  JOINT HipRight
  {
    OFFSET 4.686486 -0.037749 -0.223841
    CHANNELS 3 Zrotation Xrotation Yrotation
    JOINT KneeRight
    {
      OFFSET -2.262162 -28.782162 4.970008
      CHANNELS 3 Zrotation Xrotation Yrotation
      JOINT AnkleRight
      {
        OFFSET -6.114448 -33.335877 8.717101
        CHANNELS 3 Zrotation Xrotation Yrotation
        JOINT FootRight
        {
          OFFSET 3.303147 -2.704574 -8.870521
          CHANNELS 3 Zrotation Xrotation Yrotation
          End Site
          {
            OFFSET 0 0 0
          }
        }
      }
    }
  }
}
MOTION
Frames: 9
Frame Time: 0.033333
24.244808 69.720139 369.925794 -0.000000 0.000000 -30.412666 0.000000 0.000000 30.412666 -0.000000 0.000000 0.000000 -0.000000 0.000000 0.000000 0.000000 0.000000 0.000000 -0.000000 0.000000 0.000000 -0.000000 0.000000 0.000000 -0.000000 0.000000 0.000000 -0.000000 0.000000 0.000000 0.000000 0.000000 0.000000 0.000000 0.000000 0.000000 -0.000000 0.000000 0.000000 -0.000000 0.000000 0.000000 -0.000000 0.000000 0.000000 -0.000000 0.000000 0.000000 0.000000 0.000000 0.000000 0.000000 0.000000 0.000000 0.000000 0.000000 30.412666 -0.000000 0.000000 0.000000 -0.000000 0.000000 0.000000 0.000000 0.000000 0.000000 0.000000 0.000000 30.412666 -0.000000 0.000000 0.000000 -0.000000 0.000000 0.000000 0.000000 0.000000 0.000000
24.079385 69.699038 369.856557 -0.299249 0.144947 -30.438867 0.331436 0.026637 30.439169 -0.000000 0.000000 0.000000 -0.000000 0.000000 0.000000 0.000000 0.000000 0.000000 -0.000000 0.000000 0.000000 -0.000000 0.000000 0.000000 -0.785309 0.421494 -0.025224 -1.790263 -0.443627 0.661934 0.000000 0.000000 0.000000 0.000000 0.000000 0.000000 -0.000000 0.000000 0.000000 -0.000000 0.000000 0.000000 -0.873119 2.197206 -0.409019 1.139704 -3.787187 1.141788 0.000000 0.000000 0.000000 0.000000 0.000000 0.000000 0.331436 0.026637 30.439169 -0.000000 0.000000 0.000000 0.679849 4.640267 4.289623 0.000000 0.000000 0.000000 0.331436 0.026637 30.439169 -0.000000 0.000000 0.000000 -0.000000 0.000000 0.000000 0.000000 0.000000 0.000000
23.934895 69.682404 369.790980 -0.560909 0.269435 -30.456717 0.620081 0.052068 30.457754 -0.000000 0.000000 0.000000 -0.000000 0.000000 0.000000 0.000000 0.000000 0.000000 -0.000000 0.000000 0.000000 -0.000000 0.000000 0.000000 -1.383493 0.760647 -0.029267 -3.214509 -0.816302 1.151685 0.000000 0.000000 0.000000 0.000000 0.000000 0.000000 0.200310 1.206570 0.092787 -0.348807 -2.449610 0.113528 -1.470982 5.349115 -0.911455 2.197485 -7.092745 2.202442 0.000000 0.000000 0.000000 0.000000 0.000000 0.000000 0.620081 0.052068 30.457754 0.695943 -0.428709 0.275075 0.140381 8.979924 7.588323 0.000000 0.000000 0.000000 1.573619 0.148835 30.637921 -0.869749 0.402673 -0.178782 -0.000000 0.000000 0.000000 0.000000 0.000000 0.000000
23.811336 69.670236 369.729063 -0.785092 0.373518 -30.466062 0.866072 0.076137 30.468045 -0.000000 0.000000 0.000000 -0.000000 0.000000 0.000000 0.000000 0.000000 0.000000 -0.000000 0.000000 0.000000 -0.000000 0.000000 0.000000 -1.793963 1.016725 -0.015077 -4.296460 -1.102163 1.490616 0.000000 0.000000 0.000000 0.000000 0.000000 0.000000 0.272351 1.673014 0.126982 -0.446868 -3.481907 0.138898 -2.087775 7.521741 -1.185482 3.133711 -9.817025 3.118854 0.000000 0.000000 0.000000 0.000000 0.000000 0.000000 0.866072 0.076137 30.468045 0.951462 -0.535033 0.370938 -0.409571 12.062610 10.250100 0.000000 0.000000 0.000000 2.199285 0.197940 30.718830 -1.208381 0.576321 -0.247896 -0.000000 0.000000 0.000000 0.000000 0.000000 0.000000
23.708711 69.662534 369.670806 -0.971894 0.457242 -30.466824 1.069525 0.098718 30.469781 -0.000000 0.000000 0.000000 -0.000000 0.000000 0.000000 0.000000 0.000000 0.000000 -0.000000 0.000000 0.000000 -0.000000 0.000000 0.000000 -2.016576 1.189462 0.015168 -5.057449 -1.291294 1.695852 0.000000 0.000000 0.000000 0.000000 0.000000 0.000000 0.325974 2.048601 0.153635 -0.493939 -4.386160 0.145814 -2.637031 9.354149 -1.356199 3.905178 -11.871686 3.825808 0.000000 0.000000 0.000000 0.000000 0.000000 0.000000 1.069525 0.098718 30.469781 1.144869 -0.570245 0.438093 -1.221067 14.030876 12.041052 0.000000 0.000000 0.000000 2.715859 0.229052 30.778290 -1.481189 0.730465 -0.303776 -0.000000 0.000000 0.000000 0.000000 0.000000 0.000000
23.627017 69.659299 369.616210 -1.121381 0.520641 -30.459014 1.230527 0.119721 30.462824 -0.000000 0.000000 0.000000 -0.000000 0.000000 0.000000 0.000000 0.000000 0.000000 -0.690597 -0.470259 0.164053 0.691964 0.468246 -0.169715 -2.051503 1.278939 0.060080 -5.513169 -1.378269 1.779323 0.000000 0.000000 0.000000 0.000000 0.000000 0.000000 0.361373 2.333657 0.173078 -0.489919 -5.162692 0.135564 -3.124987 10.847596 -1.434611 4.473399 -13.192147 4.266749 0.000000 0.000000 0.000000 0.000000 0.000000 0.000000 1.230527 0.119721 30.462824 1.276281 -0.535286 0.476298 -2.206829 14.836210 12.887774 0.000000 0.000000 0.000000 3.122351 0.241576 30.816218 -1.687221 0.864472 -0.346630 -0.000000 0.000000 0.000000 0.000000 0.000000 0.000000
23.530829 69.643949 369.523073 -1.304564 0.629316 -30.329051 1.443774 0.115667 30.334758 -0.000000 0.000000 0.000000 -0.000000 0.000000 0.000000 0.000000 0.000000 0.000000 -0.909333 -0.284736 0.187294 0.910270 0.281726 -0.191791 -1.638030 1.612785 0.421832 -5.251312 -1.701246 1.144184 0.000000 0.000000 0.000000 0.000000 0.000000 0.000000 0.408499 2.519467 0.188196 -0.471434 -5.877042 0.115998 -4.077157 11.270643 -0.934982 5.075333 -12.574100 3.788059 0.000000 0.000000 0.000000 0.000000 0.000000 0.000000 1.443774 0.115667 30.334758 1.252187 -0.262984 0.433816 -3.023811 14.229856 12.684806 0.000000 0.000000 0.000000 3.631922 0.135583 30.743225 -1.891003 1.101324 -0.395089 -0.000000 0.000000 0.000000 0.000000 0.000000 0.000000
23.500017 69.654085 369.474375 -1.353542 0.640028 -30.345440 1.491417 0.131586 30.351288 -0.000000 0.000000 0.000000 -0.000000 0.000000 0.000000 0.000000 0.000000 0.000000 -1.079082 -0.026427 0.196560 1.079167 0.022721 -0.197023 -1.255386 1.477137 0.470993 -4.847586 -1.934901 0.271691 0.000000 0.000000 0.000000 0.000000 0.000000 0.000000 0.443436 2.640077 0.198384 -0.423245 -6.411254 0.081653 -4.538780 10.004246 -0.197109 5.315480 -11.175696 3.107794 0.000000 0.000000 0.000000 0.000000 0.000000 0.000000 1.491417 0.131586 30.351288 1.699977 -0.152002 0.563627 -5.652037 13.220957 11.846685 0.000000 0.000000 0.000000 3.765815 0.107960 30.775182 -1.942257 1.183891 -0.408581 -0.000000 0.000000 0.000000 0.000000 0.000000 0.000000
23.528158 69.677232 369.458960 -1.304643 0.593587 -30.369329 1.425698 0.147538 30.374252 -0.000000 0.000000 0.000000 -0.000000 0.000000 0.000000 0.000000 0.000000 0.000000 -1.346327 0.359797 0.214283 1.344999 -0.364730 -0.205775 -0.628547 1.435978 0.666539 -4.546676 -1.520599 0.409016 0.000000 0.000000 0.000000 0.000000 0.000000 0.000000 0.378210 2.712444 0.195530 -0.189319 -6.827450 0.003798 -4.187265 12.749171 -1.050908 4.502692 -12.227517 3.890728 0.000000 0.000000 0.000000 0.000000 0.000000 0.000000 2.256471 -0.138173 30.571489 0.824206 0.873940 0.208204 -6.341718 10.026597 9.157195 0.000000 0.000000 0.000000 3.599063 0.091113 30.778635 -1.838579 1.160503 -0.390288 1.148127 1.619052 -1.704509 0.000000 0.000000 0.000000
